<svg id="Layer_1" data-name="Layer 1" xmlns="http://www.w3.org/2000/svg" viewBox="0 0 586.59 500"><defs><style>.cls-1{fill:#fff;}.cls-2,.cls-4{fill:#f33;}.cls-2{opacity:0.55;}.cls-3{fill:#003;}</style></defs><title>sdkcolima</title><rect class="cls-1" width="586.59" height="500"/><text x="-186.92" y="-29.4"></text><rect class="cls-2" x="298.98" y="173.93" width="94.06" height="98.44" rx="4.77" ry="4.77" transform="translate(72.22 -208.71) rotate(45)"/><rect class="cls-2" x="297.73" y="238.04" width="94.06" height="98.44" rx="4.77" ry="4.77" transform="translate(117.19 -189.04) rotate(45)"/><path class="cls-3" d="M351.61,197.52q25.52,0,42,12.3l-12.53,24.13q-14.62-10-29.7-10t-15.08,9.28q0,4.41,4.29,6.84t16.59,5.45q37.12,8.82,37.12,34.8,0,17.87-13.8,28.65T343,319.78q-28.54,0-45.24-13.46l13-24.59a49.77,49.77,0,0,0,32.48,11.83q16.7,0,16.7-10a8.6,8.6,0,0,0-4.06-7.42q-4.06-2.78-15.43-5.57-20.18-4.87-29.23-12.88t-9-21.46q0-17.86,13.11-28.3T351.61,197.52Z" transform="translate(-186.92 -29.4)"/><path class="cls-3" d="M516.55,141.14V317.46H485.69l-1.62-13q-11.14,15.31-34.34,15.31-23.44,0-38-17.17t-14.62-43.85q0-26.68,14.73-44t37.93-17.28q21.34,0,32.48,13V141.14Zm-58.46,86.3q-11.83,0-19,8.47t-7.19,22.85q0,14.39,7.19,22.74t19,8.35q15.08,0,24.13-14.62V242.3Q473.39,227.45,458.09,227.45Z" transform="translate(-186.92 -29.4)"/><path class="cls-3" d="M567.88,141.14v121.1l41.06-62.41h39L612.2,248.33l39.21,69.14H612.2l-22.74-39.67-29,39.67H533.55V141.14Z" transform="translate(-186.92 -29.4)"/><path class="cls-3" d="M324.8,363.49q16.86,0,25.79,14.51l-12.77,9.42q-4.46-8.06-12.9-8.06a12.45,12.45,0,0,0-10.42,4.77q-3.72,4.78-3.72,12.09t3.84,12A12.86,12.86,0,0,0,325.17,413q8.31,0,13.14-8.06l12.4,9.05Q342,428.84,324.8,428.84q-14.26,0-23.44-9.24t-9.18-23.37q0-14.14,9.18-23.44T324.8,363.49Z" transform="translate(-186.92 -29.4)"/><path class="cls-3" d="M365.84,372.85q9.42-9.36,23.68-9.36t23.75,9.36q9.49,9.36,9.49,23.5t-9.42,23.31q-9.43,9.18-23.81,9.18t-23.75-9.18q-9.36-9.18-9.36-23.31T365.84,372.85Zm23.68,6.63A13.14,13.14,0,0,0,379,384.2q-4,4.71-4,12.15t4,11.9a13.29,13.29,0,0,0,10.48,4.59,13.67,13.67,0,0,0,10.6-4.59q4.15-4.59,4.15-11.9t-4.09-12.15A13.46,13.46,0,0,0,389.53,379.48Z" transform="translate(-186.92 -29.4)"/><path class="cls-3" d="M452.64,333.36V427.6H434.29V333.36Z" transform="translate(-186.92 -29.4)"/><path class="cls-3" d="M469.44,337.14a10.35,10.35,0,0,1,7.63-3,10.79,10.79,0,1,1,0,21.58,10.34,10.34,0,0,1-7.63-3,11.41,11.41,0,0,1,0-15.5Zm16.8,27.59V427.6H467.89V364.73Z" transform="translate(-186.92 -29.4)"/><path class="cls-3" d="M576,363.49q10.79,0,16.68,7.5t5.89,20.4V427.6H580.23V392.38a13.18,13.18,0,0,0-2.54-8.49,8.5,8.5,0,0,0-7-3.16q-6.82,0-11.53,7.32V427.6H540.8V392.38a13.41,13.41,0,0,0-2.48-8.49,8.32,8.32,0,0,0-6.94-3.16q-6.57,0-11.66,7.32V427.6H501.37V364.73h16.49l.87,6.94q6-8.18,17.86-8.18,13,0,18.85,10.79Q563,363.49,576,363.49Z" transform="translate(-186.92 -29.4)"/><path class="cls-3" d="M636.9,363.49q12.15,0,18,8.31l.87-7.07h16.49V427.6H655.75l-.87-6.94q-6,8.18-18,8.18a24.82,24.82,0,0,1-20-9.18q-7.69-9.18-7.69-23.44t7.69-23.5A24.76,24.76,0,0,1,636.9,363.49Zm4.46,16a12.06,12.06,0,0,0-9.8,4.53q-3.72,4.53-3.72,12.21t3.72,12.15a12.13,12.13,0,0,0,9.8,4.46q7.81,0,12.52-7.81V387.3Q649.17,379.49,641.36,379.48Z" transform="translate(-186.92 -29.4)"/><polygon class="cls-4" points="425.28 218.93 464.49 288.07 425.28 288.07 387.81 222.46 422.03 170.44 461.01 170.44 425.28 218.93"/></svg>