<svg id="Layer_1" data-name="Layer 1" xmlns="http://www.w3.org/2000/svg" viewBox="0 0 586.59 500"><defs><style>.cls-1{fill:#fff;}.cls-2{fill:#ed1c24;opacity:0.69;}.cls-3{fill:#003;}.cls-4{fill:#f33;}</style></defs><title>sdkcolima</title><rect class="cls-1" width="586.59" height="500"/><rect class="cls-2" x="290.92" y="168.38" width="138.15" height="127.5" rx="13.81" ry="13.81" transform="translate(-254.72 309.55) rotate(-46.47)"/><rect class="cls-2" x="288.19" y="200.03" width="138.15" height="127.5" rx="13.81" ry="13.81" transform="translate(-278.52 317.43) rotate(-46.47)"/><text x="-198.48" y="-23.72"></text><path class="cls-3" d="M363.18,191.84q25.52,0,42,12.3l-12.53,24.13q-14.62-10-29.7-10t-15.08,9.28q0,4.41,4.29,6.84t16.59,5.45q37.12,8.82,37.12,34.8,0,17.87-13.8,28.65t-37.47,10.79q-28.54,0-45.24-13.46l13-24.59a49.77,49.77,0,0,0,32.48,11.83q16.7,0,16.7-10a8.6,8.6,0,0,0-4.06-7.42q-4.06-2.78-15.43-5.57Q331.86,260,322.81,252t-9-21.46q0-17.86,13.11-28.3T363.18,191.84Z" transform="translate(-198.48 -23.72)"/><path class="cls-3" d="M528.12,135.47V311.79H497.26l-1.62-13q-11.14,15.31-34.34,15.31-23.44,0-38-17.17t-14.62-43.85q0-26.68,14.73-44t37.93-17.28q21.34,0,32.48,13V135.47Zm-58.46,86.3q-11.83,0-19,8.47t-7.19,22.85q0,14.39,7.19,22.74t19,8.35q15.08,0,24.13-14.62V236.62Q485,221.77,469.65,221.77Z" transform="translate(-198.48 -23.72)"/><path class="cls-3" d="M579.45,135.47v121.1l41.06-62.41h39l-35.73,48.49L663,311.79H623.76L601,272.11l-29,39.67H545.11V135.47Z" transform="translate(-198.48 -23.72)"/><path class="cls-3" d="M336.37,357.81q16.86,0,25.79,14.51l-12.77,9.42q-4.46-8.06-12.9-8.06a12.45,12.45,0,0,0-10.42,4.77q-3.72,4.78-3.72,12.09t3.84,12a12.86,12.86,0,0,0,10.54,4.71q8.31,0,13.14-8.06l12.4,9.05q-8.68,14.88-25.92,14.88-14.26,0-23.44-9.24t-9.18-23.37q0-14.14,9.18-23.44T336.37,357.81Z" transform="translate(-198.48 -23.72)"/><path class="cls-3" d="M377.41,367.17q9.42-9.36,23.68-9.36t23.75,9.36q9.49,9.36,9.49,23.5T424.9,414q-9.43,9.18-23.81,9.18T377.35,414Q368,404.81,368,390.67T377.41,367.17Zm23.68,6.63a13.14,13.14,0,0,0-10.48,4.71q-4,4.71-4,12.15t4,11.9a13.29,13.29,0,0,0,10.48,4.59,13.67,13.67,0,0,0,10.6-4.59q4.15-4.59,4.15-11.9t-4.09-12.15A13.46,13.46,0,0,0,401.09,373.81Z" transform="translate(-198.48 -23.72)"/><path class="cls-3" d="M464.21,327.68v94.24H445.85V327.68Z" transform="translate(-198.48 -23.72)"/><path class="cls-3" d="M481,331.46a10.35,10.35,0,0,1,7.63-3,10.79,10.79,0,1,1,0,21.58,10.34,10.34,0,0,1-7.63-3,11.41,11.41,0,0,1,0-15.5Zm16.8,27.59v62.87H479.46V359.05Z" transform="translate(-198.48 -23.72)"/><path class="cls-3" d="M587.58,357.81q10.79,0,16.68,7.5t5.89,20.4v36.21H591.8V386.7a13.18,13.18,0,0,0-2.54-8.49,8.5,8.5,0,0,0-7-3.16q-6.82,0-11.53,7.32v39.56H552.37V386.7a13.41,13.41,0,0,0-2.48-8.49,8.32,8.32,0,0,0-6.94-3.16q-6.57,0-11.66,7.32v39.56H512.94V359.05h16.49l.87,6.94q6-8.18,17.86-8.18,13,0,18.85,10.79Q574.56,357.81,587.58,357.81Z" transform="translate(-198.48 -23.72)"/><path class="cls-3" d="M648.47,357.81q12.15,0,18,8.31l.87-7.07h16.49v62.87H667.32l-.87-6.94q-6,8.18-18,8.18a24.82,24.82,0,0,1-20-9.18q-7.69-9.18-7.69-23.44T628.5,367A24.76,24.76,0,0,1,648.47,357.81Zm4.46,16a12.06,12.06,0,0,0-9.8,4.53q-3.72,4.53-3.72,12.21t3.72,12.15a12.13,12.13,0,0,0,9.8,4.46q7.81,0,12.52-7.81V381.62Q660.74,373.81,652.93,373.81Z" transform="translate(-198.48 -23.72)"/><polygon class="cls-4" points="425.28 218.93 464.49 288.07 425.28 288.07 387.81 222.46 422.03 170.44 461.01 170.44 425.28 218.93"/></svg>