<?xml version="1.0" encoding="UTF-8"?>
<!DOCTYPE svg PUBLIC "-//W3C//DTD SVG 1.1//EN" "http://www.w3.org/Graphics/SVG/1.1/DTD/svg11.dtd">
<svg version="1.1" xmlns="http://www.w3.org/2000/svg" xmlns:xlink="http://www.w3.org/1999/xlink" x="0" y="0" width="294" height="292" viewBox="0, 0, 294, 292">
  <g id="Page-1">
    <path d="M0.349,145.475 C0.349,65.132 66.046,-0 147.088,-0 C228.129,-0 293.826,65.132 293.826,145.475 C293.826,225.819 228.129,290.951 147.088,290.951 C66.046,290.951 0.349,225.819 0.349,145.475 z" fill="#EB3434" id="Fill-1-Copy"/>
    <g id="Group-5">
      <path d="M148.316,46.892 C156.231,47.728 163.187,51.122 168.922,56.528 C182.087,69.579 182.087,90.74 168.922,103.792 L111.802,160.42 C98.638,173.472 98.151,195.266 111.316,208.318 C134.881,228.651 156.696,205.891 161.921,200.71 C175.255,187.492 201.922,161.054 201.922,161.054 C215.087,148.003 236.432,148.003 249.596,161.054 C262.762,174.106 262.762,195.266 249.596,208.318 L225.55,232.157 C218.486,239.219 215.015,249.25 216.095,259.2 C216.729,265.031 217.732,266.347 219.978,271.71 C197.71,284.486 172.571,290.63 147,290.951 C65.959,290.951 0.261,225.819 0.261,145.475 C0.122,136.71 1.218,128.391 2.547,119.767 C3.566,121.427 4.966,122.819 6.308,124.217 C17.795,135.604 35.507,137.053 48.581,128.569 C48.581,128.569 53.316,123.875 55.683,121.528 C77.538,99.861 121.248,56.528 121.248,56.528 C126.79,51.077 134.086,47.633 141.854,46.892 C143.998,46.688 146.162,46.892 148.316,46.892 z" fill="#F9D026"/>
      <path d="M208.373,103.593 C208.373,86.997 221.944,73.543 238.684,73.543 C255.425,73.543 268.996,86.997 268.996,103.593 C268.996,120.19 255.425,133.643 238.684,133.643 C221.944,133.643 208.373,120.19 208.373,103.593" fill="#F9D026" id="Fill-4"/>
    </g>
  </g>
</svg>
